<?xml version="1.0" standalone="no"?>
<!DOCTYPE svg PUBLIC "-//W3C//DTD SVG 20010904//EN"
 "http://www.w3.org/TR/2001/REC-SVG-20010904/DTD/svg10.dtd">
<svg version="1.0" xmlns="http://www.w3.org/2000/svg"
 width="2655.000000pt" height="897.000000pt" viewBox="0 0 2655.000000 897.000000"
 preserveAspectRatio="xMidYMid meet">

<g transform="translate(0.000000,897.000000) scale(0.100000,-0.100000)"
fill="#000000" stroke="none">
<path d="M16762 7637 c-46 -49 -12 -127 54 -127 39 0 74 36 74 76 0 65 -84 98
-128 51z"/>
<path d="M16303 7630 c-74 -30 -48 -144 32 -144 70 0 101 79 50 129 -25 26
-45 30 -82 15z"/>
<path d="M17270 7613 c-33 -12 -50 -37 -50 -73 0 -60 55 -93 109 -65 53 27 54
103 1 130 -31 16 -36 17 -60 8z"/>
<path d="M480 5828 c0 -1066 4 -1778 10 -1868 41 -582 235 -1080 610 -1570
108 -140 391 -417 542 -530 571 -426 1215 -640 1926 -640 646 0 1242 184 1791
552 646 434 1116 1154 1240 1903 40 240 41 311 41 2119 l0 1756 -135 0 -134 0
-4 -1822 c-2 -1685 -4 -1831 -20 -1928 -148 -879 -674 -1595 -1463 -1988 -412
-206 -788 -303 -1229 -319 -509 -17 -982 93 -1452 337 -595 308 -1033 793
-1276 1410 -72 182 -112 329 -150 550 -21 124 -21 133 -24 1943 l-4 1817 -134
0 -135 0 0 -1722z"/>
<path d="M1012 5728 l3 -1823 24 -125 c113 -606 442 -1140 927 -1506 332 -249
779 -435 1204 -499 143 -22 497 -31 641 -16 547 56 1050 264 1449 599 464 389
776 965 839 1554 7 64 11 694 11 1868 l0 1770 -135 0 -135 0 0 -1767 c0 -1145
-4 -1800 -10 -1858 -68 -594 -407 -1142 -923 -1493 -256 -174 -527 -293 -817
-357 -193 -43 -273 -50 -540 -50 -219 1 -273 4 -383 24 -245 43 -422 99 -632
200 -242 116 -413 233 -594 406 -374 358 -597 800 -650 1287 -7 65 -11 686
-11 1853 l0 1755 -135 0 -136 0 3 -1822z"/>
<path d="M1543 5733 l3 -1818 22 -100 c92 -421 324 -797 662 -1076 170 -140
411 -272 640 -351 737 -252 1584 -73 2133 452 345 330 546 747 577 1201 6 85
10 833 10 1827 l0 1682 -135 0 -134 0 -4 -1772 c-3 -1945 1 -1826 -62 -2043
-91 -314 -306 -617 -587 -829 -212 -159 -505 -286 -768 -332 -180 -31 -466
-35 -627 -9 -661 109 -1195 538 -1387 1117 -76 229 -70 45 -73 2061 l-3 1807
-135 0 -135 0 3 -1817z"/>
<path d="M2060 5863 c0 -1023 4 -1735 10 -1807 23 -279 111 -494 291 -710 169
-203 429 -381 674 -461 329 -107 725 -108 1045 -4 231 76 487 245 652 430 155
175 249 355 301 584 21 89 21 104 24 1873 l4 1782 -135 0 -136 0 -3 -1767 c-3
-1655 -4 -1773 -21 -1842 -51 -214 -152 -378 -330 -540 -246 -221 -524 -325
-876 -325 -364 0 -644 108 -894 345 -200 190 -301 388 -326 645 -6 59 -10 779
-10 1792 l0 1692 -135 0 -135 0 0 -1687z"/>
<path d="M7103 7513 c13 -21 439 -699 947 -1508 507 -808 928 -1475 934 -1482
8 -9 30 19 89 113 44 68 77 130 74 137 -3 6 -396 633 -874 1392 l-869 1380
-162 3 -163 2 24 -37z"/>
<path d="M7712 7540 c7 -21 1583 -2529 1590 -2530 8 0 150 219 155 240 1 8
-320 528 -716 1155 l-718 1140 -158 3 c-109 2 -156 -1 -153 -8z"/>
<path d="M8330 7546 c0 -10 1279 -2031 1287 -2033 8 -3 145 208 151 234 2 7
-250 416 -559 908 l-563 895 -158 0 c-87 0 -158 -2 -158 -4z"/>
<path d="M8962 7528 c8 -13 227 -362 488 -775 260 -414 476 -753 479 -753 9 0
157 242 154 251 -2 5 -186 299 -409 654 l-406 645 -160 0 -160 0 14 -22z"/>
<path d="M11066 7528 c-211 -330 -3796 -6033 -3796 -6039 0 -6 65 -8 156 -7
l157 3 1899 3015 c1044 1658 1903 3023 1909 3033 9 16 -1 17 -150 17 -156 0
-161 -1 -175 -22z"/>
<path d="M9801 4528 c-1047 -1662 -1905 -3027 -1908 -3035 -4 -10 25 -13 150
-13 l156 0 19 28 c20 28 3751 5952 3785 6010 l19 32 -159 0 -160 0 -1902
-3022z"/>
<path d="M12296 7498 c-383 -604 -3776 -6001 -3776 -6008 0 -7 56 -10 156 -8
l155 3 1901 3020 c1045 1661 1902 3026 1905 3033 4 9 -30 12 -151 12 l-156 0
-34 -52z"/>
<path d="M12907 7483 c-187 -293 -3758 -5974 -3763 -5987 -6 -15 8 -16 152
-14 l158 3 1878 2985 c1033 1642 1892 3006 1908 3033 l30 47 -160 0 -160 0
-43 -67z"/>
<path d="M15843 7542 c-55 -8 -72 -96 -27 -131 35 -28 69 -26 99 4 57 56 9
140 -72 127z"/>
<path d="M21033 7520 c-29 -12 -43 -40 -43 -88 0 -52 32 -82 86 -82 51 0 82
22 90 65 15 82 -54 137 -133 105z"/>
<path d="M25875 7518 c-52 -30 -62 -102 -20 -143 35 -36 105 -35 134 1 21 26
27 76 15 109 -14 36 -89 56 -129 33z"/>
<path d="M17700 7473 c-36 -46 -4 -123 51 -123 52 0 97 54 82 98 -21 59 -95
73 -133 25z"/>
<path d="M15365 7368 c-37 -32 -37 -83 -1 -115 15 -12 33 -23 41 -23 29 0 64
24 76 51 15 37 -2 82 -37 98 -36 16 -50 14 -79 -11z"/>
<path d="M21240 7340 c-14 -14 -20 -33 -20 -68 0 -63 24 -87 85 -87 71 0 104
48 83 121 -11 40 -33 54 -87 54 -28 0 -48 -7 -61 -20z"/>
<path d="M18173 7320 c-47 -19 -57 -87 -18 -125 13 -14 36 -25 50 -25 36 0 75
42 75 80 0 28 -29 70 -49 70 -5 0 -15 2 -23 4 -7 3 -23 1 -35 -4z"/>
<path d="M21033 7170 c-29 -12 -43 -40 -43 -88 0 -52 32 -82 86 -82 51 0 82
22 90 65 15 83 -53 137 -133 105z"/>
<path d="M25875 7169 c-33 -19 -45 -41 -45 -81 0 -54 35 -88 90 -88 56 0 90
34 90 88 0 23 -7 49 -18 62 -20 25 -87 36 -117 19z"/>
<path d="M14931 7134 c-28 -35 -26 -69 4 -99 48 -49 125 -16 125 53 0 69 -87
99 -129 46z"/>
<path d="M21456 7079 c-21 -17 -26 -29 -26 -67 0 -26 4 -52 8 -58 22 -33 102
-45 135 -20 44 34 39 133 -9 154 -38 18 -78 14 -108 -9z"/>
<path d="M18561 7054 c-28 -35 -26 -69 4 -99 30 -31 77 -33 105 -5 31 31 30
85 -2 113 -31 26 -82 22 -107 -9z"/>
<path d="M14563 6868 c-46 -22 -51 -93 -9 -127 27 -23 78 -16 104 14 12 14 22
32 22 40 0 27 -23 63 -47 74 -29 13 -41 13 -70 -1z"/>
<path d="M21034 6836 c-35 -16 -44 -32 -44 -85 0 -55 29 -81 89 -81 55 0 77
17 87 68 10 50 -12 90 -55 102 -44 12 -39 12 -77 -4z"/>
<path d="M25884 6839 c-53 -15 -72 -94 -33 -143 17 -22 28 -26 69 -26 41 0 52
4 69 26 28 35 28 93 1 122 -12 12 -27 22 -35 22 -7 0 -19 2 -27 4 -7 2 -27 0
-44 -5z"/>
<path d="M21690 6833 c-37 -14 -50 -36 -50 -85 0 -62 24 -88 81 -88 54 0 76
14 87 54 12 42 5 80 -18 101 -19 17 -76 28 -100 18z"/>
<path d="M15420 6530 l0 -251 98 3 97 3 2 110 c2 61 5 120 8 133 l5 22 1286 0
1285 0 -3 113 -3 112 -1387 3 -1388 2 0 -250z"/>
<path d="M18947 6768 c-27 -21 -36 -60 -22 -94 14 -34 32 -44 75 -44 34 0 70
40 70 77 0 53 -80 93 -123 61z"/>
<path d="M21900 6566 c-42 -13 -63 -61 -49 -110 11 -37 18 -44 55 -55 49 -14
97 7 110 49 11 34 4 84 -14 102 -18 18 -68 25 -102 14z"/>
<path d="M14218 6526 c-23 -17 -39 -61 -31 -83 21 -60 95 -74 133 -26 53 67
-35 161 -102 109z"/>
<path d="M21015 6505 c-29 -28 -34 -88 -10 -122 20 -28 76 -39 114 -23 55 22
67 121 18 155 -34 24 -94 19 -122 -10z"/>
<path d="M25855 6505 c-27 -26 -34 -80 -15 -114 24 -46 125 -51 155 -8 8 12
15 39 15 60 0 53 -35 87 -90 87 -30 0 -47 -6 -65 -25z"/>
<path d="M19275 6385 c-30 -30 -32 -64 -4 -99 43 -55 129 -23 129 49 0 69 -76
100 -125 50z"/>
<path d="M22080 6290 c-11 -11 -20 -30 -21 -42 -4 -83 18 -111 86 -111 68 0
90 28 86 111 -2 37 -36 62 -86 62 -32 0 -51 -6 -65 -20z"/>
<path d="M21012 6157 c-26 -28 -30 -92 -7 -124 20 -28 76 -39 114 -23 55 22
67 121 18 155 -34 24 -99 19 -125 -8z"/>
<path d="M25855 6155 c-27 -26 -34 -80 -15 -114 24 -46 125 -51 155 -8 8 12
15 39 15 60 0 53 -35 87 -90 87 -30 0 -47 -6 -65 -25z"/>
<path d="M13921 6124 c-28 -35 -26 -69 4 -99 49 -50 125 -20 125 50 0 72 -86
104 -129 49z"/>
<path d="M22297 6036 c-44 -34 -39 -133 9 -154 38 -18 78 -14 108 9 22 17 26
28 26 69 0 38 -5 54 -22 70 -26 23 -93 27 -121 6z"/>
<path d="M19540 5990 c-51 -51 -26 -122 44 -128 41 -4 63 10 77 47 27 69 -69
133 -121 81z"/>
<path d="M17990 5968 c-41 -11 -76 -20 -77 -22 -1 -1 9 -38 23 -81 84 -271
111 -536 71 -698 -42 -171 -148 -287 -318 -349 l-64 -23 -786 -3 c-867 -3
-872 -3 -996 58 -107 53 -189 174 -234 345 -39 150 -26 386 31 550 11 32 20
65 20 74 0 10 -24 26 -68 44 -37 15 -72 27 -78 27 -14 0 -76 -151 -98 -240
-49 -202 -48 -431 5 -615 29 -104 126 -246 223 -325 65 -54 175 -107 266 -128
68 -15 153 -17 910 -17 834 0 835 0 915 22 223 63 367 193 442 400 41 113 54
198 54 348 1 193 -30 369 -98 578 -29 88 -25 87 -143 55z"/>
<path d="M21015 5815 c-29 -28 -34 -88 -10 -122 20 -28 76 -39 114 -23 55 22
67 121 18 155 -34 24 -94 19 -122 -10z"/>
<path d="M25855 5815 c-31 -30 -34 -92 -6 -126 16 -20 29 -24 71 -24 63 0 90
26 90 87 0 54 -34 88 -90 88 -30 0 -47 -6 -65 -25z"/>
<path d="M22513 5778 c-46 -22 -48 -134 -3 -158 32 -17 94 -12 118 10 17 16
22 32 22 70 0 41 -4 52 -26 69 -29 23 -75 26 -111 9z"/>
<path d="M13700 5693 c-36 -46 -4 -123 51 -123 52 0 97 54 82 98 -21 59 -95
73 -133 25z"/>
<path d="M19732 5547 c-47 -50 -15 -127 51 -127 69 0 101 77 52 125 -31 32
-74 33 -103 2z"/>
<path d="M22745 5523 c-49 -12 -73 -67 -54 -123 14 -37 36 -50 88 -50 56 0 81
26 81 84 0 27 -7 51 -17 64 -19 22 -65 33 -98 25z"/>
<path d="M21045 5459 c-40 -12 -55 -34 -55 -86 0 -66 30 -89 110 -84 36 3 70
45 70 86 0 63 -60 103 -125 84z"/>
<path d="M25864 5452 c-18 -12 -34 -49 -34 -80 0 -61 58 -100 123 -81 40 11
56 36 57 85 0 58 -27 84 -88 84 -26 0 -52 -4 -58 -8z"/>
<path d="M13566 5249 c-20 -16 -26 -29 -26 -58 0 -84 109 -107 140 -30 17 40
5 76 -30 94 -38 20 -52 19 -84 -6z"/>
<path d="M22919 5242 c-29 -24 -32 -101 -5 -131 33 -36 125 -31 146 9 17 33
12 98 -10 120 -26 26 -99 27 -131 2z"/>
<path d="M25884 5108 c-53 -14 -72 -93 -33 -142 17 -22 28 -26 69 -26 38 0 54
5 70 22 24 26 27 93 5 121 -17 24 -71 36 -111 25z"/>
<path d="M19873 5100 c-48 -20 -57 -87 -17 -127 20 -20 31 -24 57 -19 39 7 67
39 67 76 0 53 -57 91 -107 70z"/>
<path d="M21010 5090 c-28 -28 -27 -98 0 -128 28 -30 109 -31 134 -3 29 32 32
91 6 124 -18 23 -29 27 -71 27 -36 0 -54 -5 -69 -20z"/>
<path d="M23137 4988 c-27 -22 -38 -65 -27 -108 8 -32 17 -41 46 -50 39 -13
80 -6 107 17 26 24 23 106 -5 133 -25 23 -94 28 -121 8z"/>
<path d="M13488 4773 c-23 -28 -28 -51 -17 -80 21 -56 82 -71 124 -28 30 30
32 64 4 99 -25 32 -87 37 -111 9z"/>
<path d="M21045 4759 c-40 -12 -55 -34 -55 -84 0 -59 27 -85 89 -85 34 0 53 5
64 18 39 43 28 135 -17 147 -42 13 -51 13 -81 4z"/>
<path d="M25884 4759 c-53 -15 -72 -94 -33 -143 17 -22 28 -26 69 -26 41 0 52
4 69 26 28 35 28 93 1 122 -12 12 -27 22 -35 22 -7 0 -19 2 -27 4 -7 2 -27 0
-44 -5z"/>
<path d="M23348 4726 c-43 -32 -45 -109 -5 -146 28 -27 87 -26 121 1 22 17 26
28 26 69 0 41 -4 52 -26 69 -30 24 -90 27 -116 7z"/>
<path d="M19914 4618 c-22 -10 -44 -47 -44 -73 0 -29 46 -68 79 -68 70 0 101
84 47 130 -29 25 -49 28 -82 11z"/>
<path d="M11456 4395 l-77 -126 878 -1394 878 -1395 158 0 c86 0 157 3 157 6
0 8 -1889 3006 -1904 3022 -10 10 -28 -12 -90 -113z"/>
<path d="M23568 4469 c-53 -20 -59 -132 -8 -159 32 -17 94 -12 118 10 28 26
30 98 5 129 -21 25 -76 35 -115 20z"/>
<path d="M21012 4417 c-24 -25 -30 -84 -12 -117 28 -52 137 -45 160 10 16 39
5 95 -23 115 -34 24 -99 19 -125 -8z"/>
<path d="M25851 4414 c-39 -50 -21 -126 35 -144 41 -14 99 2 114 30 17 31 11
85 -11 114 -17 22 -28 26 -69 26 -41 0 -52 -4 -69 -26z"/>
<path d="M13491 4284 c-28 -35 -26 -69 4 -99 50 -51 125 -18 125 55 0 29 -6
43 -22 54 -35 25 -83 20 -107 -10z"/>
<path d="M23794 4213 c-56 -11 -81 -107 -40 -152 26 -29 107 -30 136 -1 41 41
16 150 -34 150 -8 0 -20 2 -28 4 -7 2 -23 1 -34 -1z"/>
<path d="M19865 4125 c-50 -49 -20 -125 50 -125 72 0 104 86 49 129 -35 28
-69 26 -99 -4z"/>
<path d="M21012 4067 c-24 -25 -30 -84 -12 -117 28 -52 137 -45 160 10 16 39
5 95 -23 115 -34 24 -99 19 -125 -8z"/>
<path d="M25851 4064 c-39 -50 -21 -126 35 -144 41 -14 99 2 114 30 17 31 11
85 -11 114 -17 22 -28 26 -69 26 -41 0 -52 -4 -69 -26z"/>
<path d="M11147 3898 l-76 -122 22 -36 c12 -20 337 -537 721 -1148 l700 -1112
159 0 c87 0 157 4 155 8 -11 28 -1592 2532 -1599 2532 -4 0 -41 -55 -82 -122z"/>
<path d="M15420 3875 l0 -115 568 -2 567 -3 3 -621 2 -621 -292 -6 c-161 -4
-418 -7 -570 -7 l-278 0 0 -110 0 -110 1390 0 1391 0 -3 113 -3 112 -707 3
-708 2 0 625 0 625 710 0 711 0 -3 113 -3 112 -1387 3 -1388 2 0 -115z"/>
<path d="M23973 3935 c-49 -34 -36 -135 19 -154 41 -15 95 -4 113 22 22 32 19
103 -5 127 -24 24 -95 27 -127 5z"/>
<path d="M13580 3820 c-12 -12 -20 -33 -20 -55 0 -72 86 -104 129 -49 28 35
26 69 -4 99 -30 31 -77 33 -105 5z"/>
<path d="M21010 3718 c-22 -24 -27 -86 -10 -118 15 -28 73 -44 114 -30 57 18
73 103 29 152 -24 27 -106 25 -133 -4z"/>
<path d="M25851 3714 c-39 -50 -21 -126 35 -144 41 -14 99 2 114 30 17 31 11
85 -11 114 -17 22 -28 26 -69 26 -41 0 -52 -4 -69 -26z"/>
<path d="M24180 3670 c-27 -27 -34 -62 -21 -103 20 -59 102 -77 146 -32 36 35
35 105 -1 134 -35 28 -97 28 -124 1z"/>
<path d="M19750 3660 c-30 -30 -27 -83 6 -109 35 -28 69 -26 99 4 50 49 19
125 -50 125 -22 0 -43 -8 -55 -20z"/>
<path d="M10836 3407 c-42 -68 -76 -127 -76 -130 0 -6 1075 -1717 1112 -1769
l19 -28 156 0 c125 0 154 3 150 13 -6 15 -1265 2017 -1277 2030 -4 5 -42 -47
-84 -116z"/>
<path d="M24403 3418 c-47 -23 -54 -123 -10 -153 31 -22 89 -19 121 6 21 16
26 29 26 64 0 57 -24 85 -75 90 -22 3 -50 0 -62 -7z"/>
<path d="M21012 3377 c-24 -25 -30 -84 -12 -117 28 -52 137 -45 160 10 16 39
5 95 -23 115 -34 24 -99 19 -125 -8z"/>
<path d="M25851 3374 c-39 -50 -21 -126 35 -144 41 -14 99 2 114 30 17 31 11
85 -11 114 -17 22 -28 26 -69 26 -41 0 -52 -4 -69 -26z"/>
<path d="M13746 3369 c-30 -24 -35 -72 -10 -107 23 -33 86 -31 113 4 28 35 26
69 -4 99 -30 30 -64 32 -99 4z"/>
<path d="M19569 3221 c-16 -13 -23 -29 -23 -54 0 -49 27 -77 74 -77 60 0 93
55 66 108 -24 46 -76 57 -117 23z"/>
<path d="M24618 3159 c-52 -19 -62 -121 -15 -154 12 -8 41 -15 64 -15 55 0 83
28 83 83 0 51 -13 73 -51 86 -37 13 -45 13 -81 0z"/>
<path d="M21010 3018 c-22 -24 -27 -86 -10 -118 14 -26 71 -41 114 -29 57 16
74 102 29 151 -24 27 -106 25 -133 -4z"/>
<path d="M25851 3014 c-39 -49 -20 -128 33 -142 40 -11 94 1 111 25 22 28 19
95 -5 121 -16 17 -32 22 -70 22 -41 0 -52 -4 -69 -26z"/>
<path d="M10522 2909 c-47 -76 -71 -126 -68 -136 4 -9 188 -304 409 -655 l402
-638 158 0 c86 0 157 2 157 5 0 11 -968 1539 -976 1542 -5 1 -42 -52 -82 -118z"/>
<path d="M13977 2950 c-65 -52 -8 -159 70 -129 34 13 52 37 53 70 0 62 -73 98
-123 59z"/>
<path d="M24804 2879 c-42 -46 -15 -144 41 -149 82 -8 115 16 115 85 0 62 -24
85 -88 85 -37 0 -54 -5 -68 -21z"/>
<path d="M19311 2804 c-12 -15 -21 -37 -21 -49 0 -12 9 -34 21 -49 42 -54 129
-19 129 52 0 69 -87 99 -129 46z"/>
<path d="M21045 2679 c-40 -12 -55 -34 -55 -84 0 -59 27 -85 89 -85 34 0 53 5
64 18 39 43 28 135 -17 147 -42 13 -51 13 -81 4z"/>
<path d="M25884 2679 c-53 -15 -72 -94 -33 -143 17 -22 28 -26 69 -26 41 0 52
4 69 26 28 35 28 93 1 122 -12 12 -27 22 -35 22 -7 0 -19 2 -27 4 -7 2 -27 0
-44 -5z"/>
<path d="M25023 2625 c-28 -20 -39 -76 -23 -115 22 -54 122 -65 155 -17 24 34
19 99 -8 125 -28 26 -92 30 -124 7z"/>
<path d="M14265 2565 c-51 -50 -18 -125 55 -125 29 0 43 6 54 22 25 35 20 83
-10 107 -35 28 -69 26 -99 -4z"/>
<path d="M19006 2449 c-20 -16 -26 -29 -26 -58 0 -47 24 -71 73 -71 68 0 100
78 52 125 -30 30 -64 32 -99 4z"/>
<path d="M25229 2361 c-20 -16 -24 -29 -24 -71 0 -63 26 -90 87 -90 54 0 88
34 88 90 0 56 -34 90 -88 90 -24 0 -49 -8 -63 -19z"/>
<path d="M21033 2320 c-29 -12 -43 -40 -43 -88 0 -52 32 -82 86 -82 51 0 82
22 90 65 15 82 -54 137 -133 105z"/>
<path d="M25879 2319 c-52 -19 -66 -103 -24 -144 35 -36 105 -35 134 1 22 28
28 83 11 114 -9 17 -60 41 -84 39 -6 0 -23 -5 -37 -10z"/>
<path d="M14615 2235 c-50 -49 -20 -125 50 -125 72 0 104 86 49 129 -35 28
-69 26 -99 -4z"/>
<path d="M18650 2147 c-52 -26 -52 -105 1 -132 54 -29 109 5 109 66 0 29 -6
42 -26 58 -31 24 -49 26 -84 8z"/>
<path d="M25459 2109 c-52 -20 -66 -103 -24 -144 35 -36 105 -35 134 1 26 33
28 94 4 123 -21 25 -76 35 -114 20z"/>
<path d="M15001 1954 c-25 -32 -26 -46 -6 -84 18 -35 54 -47 94 -30 77 31 54
140 -30 140 -29 0 -42 -6 -58 -26z"/>
<path d="M21033 1970 c-29 -12 -43 -40 -43 -88 0 -52 32 -82 86 -82 51 0 82
22 90 65 15 83 -53 137 -133 105z"/>
<path d="M25875 1968 c-52 -28 -63 -101 -20 -143 55 -56 155 -18 155 59 0 48
-8 65 -41 81 -33 18 -66 19 -94 3z"/>
<path d="M18228 1883 c-26 -30 -30 -60 -13 -92 27 -54 103 -54 130 0 28 54 -5
109 -65 109 -23 0 -43 -7 -52 -17z"/>
<path d="M25705 1854 c-5 -1 -22 -5 -36 -8 -48 -10 -65 -93 -28 -140 17 -22
28 -26 69 -26 38 0 54 5 70 22 23 26 27 93 6 121 -14 18 -62 36 -81 31z"/>
<path d="M15439 1751 c-52 -42 -17 -131 51 -131 44 0 74 31 74 75 0 44 -30 75
-74 75 -15 0 -38 -8 -51 -19z"/>
<path d="M17780 1683 c-50 -64 18 -146 95 -117 23 9 47 61 39 87 -12 39 -35
57 -75 57 -29 0 -42 -6 -59 -27z"/>
<path d="M21033 1620 c-46 -19 -58 -98 -22 -144 16 -21 29 -26 63 -26 53 0 83
21 92 65 15 83 -53 137 -133 105z"/>
<path d="M25875 1619 c-33 -19 -45 -41 -45 -81 0 -54 35 -88 90 -88 56 0 90
34 90 88 0 23 -7 49 -18 62 -20 25 -87 36 -117 19z"/>
<path d="M15890 1598 c-27 -30 -26 -73 5 -103 30 -30 64 -32 99 -4 33 26 36
79 6 109 -27 27 -83 27 -110 -2z"/>
<path d="M17325 1565 c-50 -49 -19 -125 50 -125 72 0 104 86 49 129 -35 28
-69 26 -99 -4z"/>
<path d="M16361 1514 c-25 -32 -26 -46 -6 -83 27 -52 109 -49 134 6 23 51 -12
103 -70 103 -29 0 -42 -6 -58 -26z"/>
<path d="M16840 1503 c-50 -64 18 -146 95 -117 24 10 46 60 39 89 -14 58 -97
75 -134 28z"/>
</g>
</svg>
